<svg xmlns="http://www.w3.org/2000/svg" width="64" height="64" fill="none"><g opacity=".78"><path fill="#19BCFE" d="M42.667 42.667c5.89 0 10.666-4.776 10.666-10.667s-4.775-10.667-10.666-10.667S32 26.11 32 32s4.776 10.667 10.667 10.667Z"/><path fill="#09CF83" fill-rule="evenodd" d="M21.333 64A10.667 10.667 0 0 0 32 53.333V42.667H21.333a10.667 10.667 0 1 0 0 21.333Z" clip-rule="evenodd"/><path fill="#A259FF" fill-rule="evenodd" d="M21.333 42.667H32V21.333H21.333a10.667 10.667 0 1 0 0 21.334Z" clip-rule="evenodd"/><path fill="#F24E1E" fill-rule="evenodd" d="M21.333 21.333H32V0H21.333a10.667 10.667 0 1 0 0 21.333Z" clip-rule="evenodd"/><path fill="#FF7262" fill-rule="evenodd" d="M42.667 21.333H32V0h10.667a10.667 10.667 0 0 1 0 21.333Z" clip-rule="evenodd"/></g></svg>