<svg xmlns="http://www.w3.org/2000/svg">
  <symbol id="download-icon" xmlns="http://www.w3.org/2000/svg" fill="none">
    <path fill="currentColor" fill-opacity=".38" d="M17.5 16.25h-1.25V15a1.25 1.25 0 0 0-2.5 0v1.25H12.5a1.25 1.25 0 0 0 0 2.5h1.25V20a1.25 1.25 0 0 0 2.5 0v-1.25h1.25a1.25 1.25 0 0 0 0-2.5Z"/><path fill="currentColor" fill-opacity=".38" d="M24.375 8.812h-8.75l-3.287-3.975a1.25 1.25 0 0 0-.963-.462h-5.75A3.087 3.087 0 0 0 2.5 7.412v15.175a3.088 3.088 0 0 0 3.125 3.038h18.75a3.088 3.088 0 0 0 3.125-3.038V11.85a3.088 3.088 0 0 0-3.125-3.038ZM25 22.562a.574.574 0 0 1-.625.538H5.625A.575.575 0 0 1 5 22.562V7.412a.575.575 0 0 1 .625-.537h5.162l3.25 3.975a1.25 1.25 0 0 0 .963.463h9.375a.576.576 0 0 1 .625.537v10.713Z"/>
  </symbol>

  <symbol id="facebook-icon" xmlns="http://www.w3.org/2000/svg" fill="none">
    <path fill="currentColor" fill-opacity=".78" d="M8.98 25.746V14.135h3.916l.582-4.546H8.98V6.693c0-1.312.366-2.21 2.248-2.21h2.386V.43a31.643 31.643 0 0 0-3.495-.18c-3.462 0-5.84 2.114-5.84 5.994V9.58H.388v4.546h3.9v11.62H8.98Z"/>
  </symbol>

  <symbol id="favorite-icon" xmlns="http://www.w3.org/2000/svg" fill="none">
    <path fill="currentColor" fill-opacity=".38" d="M19.833 5.25c-2.45 0-4.608 1.225-5.833 3.15-1.225-1.925-3.383-3.15-5.833-3.15-3.85 0-7 3.15-7 7 0 6.942 12.833 14 12.833 14s12.833-7 12.833-14c0-3.85-3.15-7-7-7Z"/>
  </symbol>

  <symbol id="figma-icon" xmlns="http://www.w3.org/2000/svg" fill="none">
    <g opacity=".78">
    <path fill="#19BCFE" d="M42.667 42.667c5.89 0 10.666-4.776 10.666-10.667s-4.775-10.667-10.666-10.667S32 26.11 32 32s4.776 10.667 10.667 10.667Z"/>
    <path fill="#09CF83" fill-rule="evenodd" d="M21.333 64A10.667 10.667 0 0 0 32 53.333V42.667H21.333a10.667 10.667 0 1 0 0 21.333Z" clip-rule="evenodd"/>
    <path fill="#A259FF" fill-rule="evenodd" d="M21.333 42.667H32V21.333H21.333a10.667 10.667 0 1 0 0 21.334Z" clip-rule="evenodd"/>
    <path fill="#F24E1E" fill-rule="evenodd" d="M21.333 21.333H32V0H21.333a10.667 10.667 0 1 0 0 21.333Z" clip-rule="evenodd"/>
    <path fill="#FF7262" fill-rule="evenodd" d="M42.667 21.333H32V0h10.667a10.667 10.667 0 0 1 0 21.333Z" clip-rule="evenodd"/>
    </g>
  </symbol>

  <symbol id="google-icon" xmlns="http://www.w3.org/2000/svg" fill="none">
    <g clip-path="url(#clip0_43_24)">
    <path d="M152.11 31.1682L156.466 34.0427C155.052 36.104 151.671 39.6406 145.825 39.6406C138.567 39.6406 133.161 34.0807 133.161 27.0078C133.161 19.4813 138.624 14.3752 145.214 14.3752C151.843 14.3752 155.09 19.5945 156.141 22.4123L156.714 23.8497L139.637 30.8467C140.935 33.3809 142.961 34.6669 145.825 34.6669C148.691 34.6669 150.677 33.2674 152.11 31.1682ZM138.72 26.611L150.124 21.9208C149.493 20.3514 147.621 19.2357 145.386 19.2357C142.54 19.2357 138.586 21.732 138.72 26.611Z" fill="currentColor" fill-opacity="0.2"/>
    <path d="M124.927 1.49686H130.428V38.487H124.927V1.49655V1.49686Z" fill="currentColor" fill-opacity="0.2"/>
    <path d="M116.255 15.3586H121.565V37.825C121.565 47.148 116.007 50.987 109.435 50.987C103.246 50.987 99.5216 46.8645 98.1269 43.5173L102.998 41.5125C103.876 43.5737 105.997 46.0135 109.435 46.0135C113.657 46.0135 116.255 43.4226 116.255 38.5815V36.7661H116.064C114.803 38.2788 112.396 39.6404 109.34 39.6404C102.96 39.6404 97.1141 34.1372 97.1141 27.0458C97.1141 19.9161 102.96 14.3565 109.34 14.3565C112.377 14.3565 114.803 15.6992 116.064 17.1743H116.255V15.3589V15.3586ZM116.637 27.0458C116.637 22.5827 113.638 19.3299 109.817 19.3299C105.959 19.3299 102.711 22.5827 102.711 27.0458C102.711 31.4518 105.959 34.6478 109.817 34.6478C113.638 34.667 116.637 31.4518 116.637 27.0458H116.637Z" fill="currentColor" fill-opacity="0.2"/>
    <path d="M66.9136 26.9512C66.9136 34.232 61.1831 39.5837 54.1533 39.5837C47.1239 39.5837 41.3931 34.2132 41.3931 26.9512C41.3931 19.6327 47.1239 14.2998 54.1533 14.2998C61.1831 14.2998 66.9136 19.6327 66.9136 26.9512ZM61.3358 26.9512C61.3358 22.4128 58.0118 19.2921 54.1533 19.2921C50.2949 19.2921 46.9709 22.4128 46.9709 26.9512C46.9709 31.4519 50.2949 34.6103 54.1533 34.6103C58.0121 34.6103 61.3358 31.4519 61.3358 26.9512Z" fill="currentColor" fill-opacity="0.2"/>
    <path d="M94.7841 27.0078C94.7841 34.2886 89.0533 39.6403 82.0238 39.6403C74.9941 39.6403 69.2636 34.2883 69.2636 27.0078C69.2636 19.6893 74.9941 14.3752 82.0238 14.3752C89.0533 14.3752 94.7841 19.6704 94.7841 27.0078ZM89.187 27.0078C89.187 22.4694 85.8633 19.3487 82.0045 19.3487C78.1461 19.3487 74.8221 22.4694 74.8221 27.0078C74.8221 31.5085 78.1461 34.6669 82.0045 34.6669C85.8823 34.6669 89.187 31.4897 89.187 27.0078Z" fill="currentColor" fill-opacity="0.2"/>
    <path d="M20.4189 34.0995C12.4149 34.0995 6.14965 27.7075 6.14965 19.7837C6.14965 11.8602 12.4149 5.46819 20.4189 5.46819C24.7361 5.46819 27.8877 7.15119 30.2182 9.30715L34.0579 5.50613C30.8106 2.42367 26.4744 0.0782776 20.4189 0.0782776C9.45431 0.0785812 0.227806 8.9292 0.227806 19.7837C0.227806 30.6388 9.45431 39.4891 20.4189 39.4891C26.3407 39.4891 30.8106 37.5602 34.3063 33.9672C37.8974 30.4117 39.0053 25.4192 39.0053 21.3723C39.0053 20.1052 38.8526 18.8004 38.6805 17.836H20.4189V23.0932H33.4275C33.0454 26.384 31.9949 28.6343 30.4475 30.1658C28.5755 32.0383 25.6149 34.0995 20.4189 34.0995Z" fill="currentColor" fill-opacity="0.2"/>
    </g>
    <defs>
    <clipPath id="clip0_43_24">
    <rect width="157" height="51" fill="currentColor"/>
    </clipPath>
    </defs>
  </symbol>

  <symbol id="instagram-icon" xmlns="http://www.w3.org/2000/svg" fill="none">
    <path fill="currentColor" fill-opacity=".78" d="M17.998 11.065a6.936 6.936 0 1 0 0 13.873 6.936 6.936 0 0 0 0-13.873Zm0 11.44a4.506 4.506 0 1 1 0-9.01 4.506 4.506 0 0 1 0 9.01ZM25.209 12.428a1.617 1.617 0 1 0 0-3.235 1.617 1.617 0 0 0 0 3.235Z"/>
    <path fill="currentColor" fill-opacity=".78" d="M30.8 9.166a6.907 6.907 0 0 0-3.95-3.948 9.909 9.909 0 0 0-3.279-.63c-1.445-.063-1.902-.08-5.565-.08-3.663 0-4.133 0-5.565.08a9.83 9.83 0 0 0-3.276.63 6.9 6.9 0 0 0-3.95 3.948 9.877 9.877 0 0 0-.628 3.28c-.064 1.442-.084 1.9-.084 5.564 0 3.663 0 4.13.084 5.565a9.893 9.893 0 0 0 .629 3.28 6.915 6.915 0 0 0 3.95 3.949 9.876 9.876 0 0 0 3.278.675c1.444.063 1.902.082 5.565.082 3.663 0 4.133 0 5.565-.082a9.92 9.92 0 0 0 3.279-.628 6.922 6.922 0 0 0 3.95-3.95 9.877 9.877 0 0 0 .628-3.279c.064-1.443.084-1.9.084-5.565 0-3.665 0-4.13-.084-5.565a9.872 9.872 0 0 0-.632-3.326Zm-1.828 14.298a7.566 7.566 0 0 1-.466 2.532 4.48 4.48 0 0 1-2.568 2.567 7.476 7.476 0 0 1-2.505.466c-1.425.066-1.827.083-5.481.083-3.657 0-4.03 0-5.483-.083a7.437 7.437 0 0 1-2.503-.466 4.477 4.477 0 0 1-2.578-2.567 7.62 7.62 0 0 1-.467-2.503c-.064-1.425-.08-1.827-.08-5.481 0-3.656 0-4.03.08-5.483.01-.864.167-1.72.467-2.53a4.48 4.48 0 0 1 2.578-2.568 7.515 7.515 0 0 1 2.504-.467c1.426-.064 1.826-.082 5.482-.082 3.655 0 4.03 0 5.481.082a7.44 7.44 0 0 1 2.505.467 4.487 4.487 0 0 1 2.568 2.568c.295.802.453 1.649.466 2.503.065 1.427.081 1.827.081 5.483 0 3.654 0 4.047-.064 5.481h-.017v-.002Z"/>
  </symbol>

  <symbol id="sketch-2" viewBox="0 0 64 57" fill="none" xmlns="http://www.w3.org/2000/svg">
    <g clip-path="url(#clip0_26_111)">
    <path d="M32 0L13.9637 1.87248L0 20.2781L32 56.867L64 20.2779L50.0365 1.87248L32 0Z" fill="#FDB300"/>
    <path d="M0 20.2782L32 56.8671L12.9615 20.2782H0Z" fill="#EB6C00"/>
    <path d="M51.0382 20.2782L32 56.8671L64 20.2782H51.0382Z" fill="#EB6C00"/>
    <path d="M12.9617 20.2782L32.0002 56.8671L51.0387 20.2782H12.9617Z" fill="#FDAD00"/>
    <path d="M13.9636 1.87248L12.9611 20.2781L31.9998 0L13.9636 1.87248Z" fill="#FDD231"/>
    <path d="M51.0382 20.2781L50.0363 1.87248L32 0L51.0382 20.2781Z" fill="#FDD231"/>
    <path d="M51.0383 20.2781H63.9998L50.0363 1.87244L51.0383 20.2781Z" fill="#FDAD00"/>
    <path d="M0 20.2781H12.9615L13.9637 1.87244L0 20.2781Z" fill="#FDAD00"/>
    <path d="M32.0002 0L12.9617 20.2779H51.0387L32.0002 0Z" fill="#FEEEB7"/>
    </g>
    <defs>
    <clipPath id="clip0_26_111">
    <rect width="64" height="56.95" fill="white"/>
    </clipPath>
    </defs>
  </symbol>

  <symbol id="main-link" xmlns="http://www.w3.org/2000/svg" fill="none">
    <rect width="38" height="38" fill="#FF6E30" rx="8"/>
    <path fill="#fff" fill-rule="evenodd" d="M19.965 12.436c-.333 0-.656.04-.965.118a9.12 9.12 0 0 1 1.996-4.76 8.67 8.67 0 0 1 7.637 8.609v6.326a9.165 9.165 0 0 1-8.53-4.687h3.828v-1.64a3.967 3.967 0 0 0-3.966-3.966Z" clip-rule="evenodd"/><path fill="#fff" fill-rule="evenodd" d="M9.256 16.95A9.643 9.643 0 0 1 19.52 7.328a10.105 10.105 0 0 0-2.598 7.379 2.985 2.985 0 0 0-1.014 2.245v.665h5.985-4.37c1.423 3.88 5.15 6.65 9.524 6.65.509 0 1.008-.037 1.497-.11v4.1h-6.65v-3.99h-5.986v3.99h-6.65V16.951Z" clip-rule="evenodd"/>
  </symbol>

  <symbol id="microsoft-icon" xmlns="http://www.w3.org/2000/svg" fill="none">
    <g clip-path="url(#clip0_43_12)">
    <path d="M192.953 18.8756V15.4384H188.739V10.0953L188.597 10.1396L184.639 11.366L184.561 11.39V15.4388H178.314V13.1838C178.314 12.1338 178.546 11.3297 179.003 10.7936C179.456 10.264 180.105 9.99487 180.933 9.99487C181.528 9.99487 182.144 10.1369 182.764 10.4172L182.92 10.487V6.86739L182.847 6.84029C182.268 6.62952 181.481 6.52338 180.506 6.52338C179.277 6.52338 178.16 6.79447 177.186 7.3313C176.212 7.8689 175.445 8.63636 174.908 9.61267C174.373 10.5874 174.102 11.7134 174.102 12.9593V15.4388H171.167V18.876H174.102V33.3556H178.314V18.8756H184.561V28.0774C184.561 31.8673 186.326 33.7882 189.806 33.7882C190.378 33.7882 190.98 33.7199 191.595 33.587C192.221 33.4507 192.646 33.3144 192.897 33.1686L192.953 33.1357V29.6665L192.781 29.7811C192.553 29.9361 192.268 30.0617 191.934 30.1552C191.599 30.2507 191.319 30.2988 191.102 30.2988C190.287 30.2988 189.684 30.0762 189.309 29.6371C188.93 29.1942 188.739 28.4191 188.739 27.3348V18.8756H192.953ZM161.76 30.2996C160.232 30.2996 159.026 29.7856 158.177 28.7742C157.322 27.7574 156.889 26.308 156.889 24.4665C156.889 22.567 157.322 21.0798 158.177 20.0451C159.027 19.0172 160.221 18.4957 161.726 18.4957C163.187 18.4957 164.35 18.9939 165.182 19.9771C166.019 20.966 166.444 22.441 166.444 24.3631C166.444 26.3084 166.044 27.8032 165.257 28.8028C164.474 29.7952 163.298 30.2996 161.76 30.2996ZM161.948 15.007C159.031 15.007 156.714 15.8726 155.063 17.5801C153.412 19.2879 152.575 21.6506 152.575 24.6044C152.575 27.4096 153.392 29.6661 155.004 31.3099C156.615 32.9547 158.808 33.7879 161.521 33.7879C164.349 33.7879 166.62 32.9097 168.271 31.1789C169.922 29.4493 170.758 27.1087 170.758 24.2241C170.758 21.375 169.973 19.1016 168.425 17.4686C166.875 15.8352 164.696 15.007 161.948 15.007ZM145.783 15.007C143.799 15.007 142.158 15.5209 140.904 16.5343C139.643 17.5537 139.003 18.8912 139.003 20.5094C139.003 21.3505 139.141 22.0977 139.413 22.7316C139.686 23.3673 140.11 23.927 140.672 24.397C141.23 24.8629 142.091 25.3512 143.232 25.848C144.191 26.2477 144.907 26.586 145.361 26.8525C145.806 27.1137 146.121 27.3764 146.299 27.6322C146.472 27.8823 146.56 28.2248 146.56 28.6478C146.56 29.8517 145.67 30.437 143.839 30.437C143.16 30.437 142.385 30.2938 141.536 30.0105C140.693 29.7314 139.898 29.3228 139.178 28.799L139.003 28.6723V32.7799L139.067 32.8104C139.663 33.0891 140.415 33.3236 141.3 33.5088C142.185 33.6939 142.987 33.7882 143.685 33.7882C145.838 33.7882 147.572 33.2716 148.837 32.2518C150.11 31.2255 150.756 29.8567 150.756 28.182C150.756 26.9743 150.408 25.9388 149.724 25.1034C149.044 24.2749 147.864 23.5143 146.217 22.8419C144.906 22.3089 144.066 21.8664 143.719 21.5265C143.385 21.1982 143.215 20.7343 143.215 20.1466C143.215 19.6255 143.425 19.2081 143.855 18.8698C144.288 18.53 144.891 18.3571 145.647 18.3571C146.349 18.3571 147.067 18.4693 147.781 18.6892C148.495 18.9096 149.122 19.2043 149.645 19.5648L149.817 19.6839V15.7874L149.751 15.7584C149.268 15.5488 148.632 15.3697 147.858 15.2239C147.089 15.0799 146.391 15.007 145.783 15.007ZM128.022 30.2992C126.493 30.2992 125.288 29.7856 124.438 28.7742C123.583 27.7574 123.151 26.3084 123.151 24.4665C123.151 22.567 123.584 21.0798 124.439 20.0451C125.288 19.0172 126.482 18.4957 127.988 18.4957C129.448 18.4957 130.611 18.9939 131.444 19.9771C132.28 20.966 132.705 22.441 132.705 24.3631C132.705 26.3084 132.306 27.8032 131.518 28.8028C130.736 29.7952 129.56 30.2996 128.022 30.2996V30.2992ZM128.21 15.007C125.292 15.007 122.975 15.8726 121.324 17.5801C119.674 19.2879 118.836 21.6506 118.836 24.6044C118.836 27.4107 119.654 29.6661 121.265 31.3099C122.877 32.9547 125.07 33.7879 127.783 33.7879C130.61 33.7879 132.881 32.9097 134.532 31.1789C136.183 29.4493 137.02 27.1087 137.02 24.2241C137.02 21.375 136.235 19.1016 134.686 17.4686C133.136 15.8352 130.957 15.007 128.21 15.007H128.21ZM112.442 18.5415V15.4384H108.281V33.3556H112.442V24.1905C112.442 22.6319 112.791 21.3517 113.479 20.3845C114.159 19.4288 115.064 18.9451 116.17 18.9451C116.545 18.9451 116.966 19.0073 117.421 19.1314C117.872 19.2543 118.199 19.388 118.392 19.5285L118.566 19.6568V15.4079L118.499 15.3785C118.111 15.2116 117.563 15.1276 116.869 15.1276C115.824 15.1276 114.888 15.4678 114.087 16.1379C113.383 16.7267 112.875 17.5342 112.486 18.5415H112.442H112.442ZM100.83 15.007C98.9208 15.007 97.2181 15.4216 95.7695 16.2387C94.3182 17.0577 93.1961 18.2276 92.4327 19.7148C91.6724 21.1986 91.2868 22.9312 91.2868 24.864C91.2868 26.5566 91.6607 28.1102 92.4003 29.4794C93.1403 30.8509 94.1882 31.9238 95.5139 32.6676C96.8382 33.411 98.3682 33.7882 100.063 33.7882C102.04 33.7882 103.729 33.3873 105.082 32.5981L105.137 32.566V28.7047L104.962 28.8342C104.339 29.2914 103.653 29.6532 102.926 29.9078C102.191 30.1675 101.52 30.2992 100.932 30.2992C99.3001 30.2992 97.9894 29.7814 97.0376 28.7616C96.0839 27.7399 95.6006 26.3058 95.6006 24.5005C95.6006 22.6842 96.105 21.2131 97.0987 20.1272C98.0889 19.0451 99.4018 18.496 101.001 18.496C102.369 18.496 103.701 18.9649 104.962 19.8916L105.137 20.0199V15.9516L105.08 15.9192C104.606 15.6504 103.959 15.4281 103.155 15.2598C102.356 15.0918 101.573 15.007 100.829 15.007H100.83ZM88.4204 15.4384H84.2596V33.3556H88.4208V15.4388L88.4204 15.4384ZM86.3826 7.8059C85.6981 7.8059 85.101 8.04187 84.6098 8.50998C84.1171 8.97961 83.8672 9.57029 83.8672 10.2675C83.8672 10.9536 84.1141 11.5336 84.6023 11.9902C85.087 12.4458 85.686 12.6768 86.3826 12.6768C87.0792 12.6768 87.6805 12.4458 88.1713 11.991C88.6651 11.5336 88.9158 10.9536 88.9158 10.2675C88.9158 9.59434 88.6719 9.00939 88.1916 8.52869C87.7118 8.04912 87.1034 7.8059 86.3826 7.8059ZM76.0013 14.1166V33.3556H80.2473V8.35458H74.3706L66.9002 26.9243L59.6506 8.35458H53.5342V33.3556H57.5246V14.1147H57.6618L65.317 33.3553H68.3285L75.8638 14.1166H76.001H76.0013Z" fill="currentColor" fill-opacity="0.2"/>
    <path d="M19.574 19.8267H0V0H19.574V19.8267Z" fill="currentColor" fill-opacity="0.2"/>
    <path d="M41.1859 19.8267H21.6122V0H41.1859V19.8267Z" fill="currentColor" fill-opacity="0.2"/>
    <path d="M19.5733 41.7251H0V21.8988H19.5733V41.7251Z" fill="currentColor" fill-opacity="0.2"/>
    <path d="M41.1859 41.7251H21.6122V21.8988H41.1859V41.7251Z" fill="currentColor" fill-opacity="0.2"/>
    </g>
    <defs>
    <clipPath id="clip0_43_12">
    <rect width="193" height="42" fill="currentColor"/>
    </clipPath>
    </defs>
  </symbol>

  <symbol id="notion-icon" xmlns="http://www.w3.org/2000/svg" fill="none">
    <g opacity=".78"><path fill="#fff" fill-rule="evenodd" d="m11.432 58.436-6.879-8.57A11.506 11.506 0 0 1 2 42.66V11.63c0-3.909 3.127-7.152 7.161-7.428l31.903-2.178A10.398 10.398 0 0 1 47.59 3.77l11.208 7.579C60.805 12.704 62 14.922 62 17.288v35.278c0 3.825-3.075 6.993-7.025 7.236l-35.408 2.18c-3.152.193-6.199-1.135-8.135-3.546Z" clip-rule="evenodd"/><path fill="#000" d="M22.496 27.157v-.406c0-1.03.825-1.884 1.888-1.955l7.743-.517 10.707 15.768V26.208l-2.756-.367v-.193c0-1.042.844-1.902 1.92-1.957l7.045-.36v1.013a.99.99 0 0 1-.839.965l-1.695.287v22.411l-2.128.732c-1.777.611-3.756-.043-4.774-1.578L29.212 31.474v14.972l3.2.612-.045.297c-.14.93-.942 1.633-1.913 1.676l-7.958.354c-.105-1 .644-1.894 1.678-2.002l1.047-.11V27.31l-2.725-.153Z"/><path fill="#000" fill-rule="evenodd" d="M41.35 5.934 9.447 8.112c-1.91.13-3.392 1.666-3.392 3.518v31.03c0 1.74.599 3.43 1.702 4.804l6.879 8.57c1.112 1.385 2.862 2.148 4.673 2.036l35.408-2.18c1.815-.111 3.228-1.566 3.228-3.324V17.288a3.3 3.3 0 0 0-1.471-2.729L45.265 6.981a6.239 6.239 0 0 0-3.915-1.047Zm-30.32 6.18c-.445-.329-.233-1.013.324-1.053l30.21-2.167a4.157 4.157 0 0 1 2.698.748l6.062 4.294c.23.163.122.515-.163.53l-31.993 1.74a4.153 4.153 0 0 1-2.694-.801l-4.445-3.291Zm5.637 9.547c0-1.039.84-1.898 1.914-1.956l33.825-1.842c1.047-.057 1.928.748 1.928 1.76V50.17c0 1.038-.837 1.896-1.909 1.957l-33.611 1.912c-1.165.066-2.147-.829-2.147-1.956V21.661Z" clip-rule="evenodd"/></g>
  </symbol>

  <symbol id="php-storm-icon" xmlns="http://www.w3.org/2000/svg" fill="none">
    <g clip-path="url(#a)"><path fill="url(#b)" d="m36.206 13.897-3.017-9.143L10.88 0 0 12.343l34.011 17.371 2.195-15.817Z"/><path fill="url(#c)" d="m25.6 37.851-.64-19.017L0 12.343l6.126 36.663 19.474-.183V37.85Z"/><path fill="url(#d)" d="M20.206 37.486 21.394 22.4 39.497 3.84 55.68 6.766 64 27.52l-8.686 8.594-14.171-2.285-8.777 9.234-12.16-5.577Z"/><path fill="url(#e)" d="M39.497 3.84 13.532 26.88l5.028 29.623L40.137 64 64 49.737 39.497 3.84Z"/><path fill="#000" d="M12.251 12.251H51.75V51.75H12.25V12.25Z"/><path fill="#fff" d="M16 44.343h14.811v2.468H16v-2.468ZM15.817 17.371h6.674c3.932 0 6.309 2.286 6.309 5.669v.091c0 3.84-2.926 5.76-6.674 5.76h-2.743v4.938h-3.566V17.37Zm6.491 8.229c1.829 0 2.835-1.097 2.835-2.469v-.091c0-1.646-1.097-2.469-2.926-2.469h-2.743V25.6h2.834ZM29.714 31.451l2.103-2.56c1.463 1.189 3.017 2.012 4.937 2.012 1.463 0 2.377-.549 2.377-1.554v-.092c0-.914-.548-1.371-3.291-2.103-3.292-.823-5.486-1.737-5.486-5.028v-.092c0-3.017 2.377-4.937 5.76-4.937 2.377 0 4.48.731 6.126 2.103l-1.92 2.743c-1.463-1.006-2.926-1.646-4.297-1.646-1.372 0-2.103.64-2.103 1.463v.091c0 1.098.731 1.463 3.566 2.195 3.291.914 5.211 2.102 5.211 4.937v.091c0 3.292-2.469 5.12-6.034 5.12a11.267 11.267 0 0 1-6.949-2.743Z"/></g><defs><linearGradient id="b" x1=".51" x2="27.38" y1="42.831" y2="7.338" gradientUnits="userSpaceOnUse"><stop offset=".016" stop-color="#765AF8"/><stop offset=".382" stop-color="#B345F1"/><stop offset=".758" stop-color="#FA3293"/><stop offset=".941" stop-color="#FF318C"/></linearGradient><linearGradient id="c" x1="2.496" x2="29.323" y1="44.232" y2="8.796" gradientUnits="userSpaceOnUse"><stop offset=".016" stop-color="#765AF8"/><stop offset=".382" stop-color="#B345F1"/><stop offset=".758" stop-color="#FA3293"/><stop offset=".941" stop-color="#FF318C"/></linearGradient><linearGradient id="d" x1="46.498" x2="31.336" y1="42.428" y2="6.444" gradientUnits="userSpaceOnUse"><stop offset=".183" stop-color="#765AF8"/><stop offset=".238" stop-color="#8655F6"/><stop offset=".345" stop-color="#9F4CF3"/><stop offset=".443" stop-color="#AE47F2"/><stop offset=".522" stop-color="#B345F1"/></linearGradient><linearGradient id="e" x1="57.843" x2="22.581" y1="52.424" y2="25.157" gradientUnits="userSpaceOnUse"><stop offset=".016" stop-color="#765AF8"/><stop offset=".382" stop-color="#B345F1"/></linearGradient><clipPath id="a"><path fill="#fff" d="M0 0h64v64H0z"/></clipPath></defs>
  </symbol>

  <symbol id="procreate-icon" xmlns="http://www.w3.org/2000/svg" fill="none">
    <g opacity=".78">
    <path fill="#1E252B" d="M4 24.267c0-7.094 0-10.641 1.38-13.35a12.667 12.667 0 0 1 5.536-5.536C13.626 4 17.173 4 24.266 4h15.467c7.094 0 10.641 0 13.35 1.38a12.667 12.667 0 0 1 5.536 5.536C60 13.626 60 17.173 60 24.266v15.467c0 7.094 0 10.641-1.38 13.35a12.666 12.666 0 0 1-5.536 5.536C50.374 60 46.827 60 39.734 60H24.266c-7.094 0-10.641 0-13.35-1.38a12.667 12.667 0 0 1-5.536-5.536C4 50.374 4 46.827 4 39.734V24.266Z"/><path fill="url(#a)" d="M19.733 32.8c-7.8 5.74-9.333 14.133-9.333 21.133.356-2.089 1.987-6.986 5.667-9.866 5.466-4.279 15.466-2.87 26.4-10.134 10.933-7.264 12-16.733 10.6-24-.973 7.012-4.293 10.068-8.867 12.8-9.933 5.934-16.133 3.934-24.467 10.067Z"/><path fill="url(#b)" d="M19.733 32.8c-7.8 5.74-9.333 14.133-9.333 21.133.356-2.089 1.987-6.986 5.667-9.866 5.466-4.279 15.466-2.87 26.4-10.134 10.933-7.264 12-16.733 10.6-24-.973 7.012-4.293 10.068-8.867 12.8-9.933 5.934-16.133 3.934-24.467 10.067Z"/><path fill="url(#c)" d="M10.493 51.064c.428-6.325 2.482-13.29 9.24-18.264 4.345-3.197 8.11-4.184 12.125-5.237 2.344-.615 4.773-1.252 7.453-2.363-.978.933-5.624 3.113-9.128 4.57-3.496 1.453-7.181 2.984-10.25 5.03-6.156 4.104-8.66 11.245-9.44 16.264Z"/><path fill="url(#d)" d="M10.493 51.064c.428-6.325 2.482-13.29 9.24-18.264 4.345-3.197 8.11-4.184 12.125-5.237 2.344-.615 4.773-1.252 7.453-2.363-.978.933-5.624 3.113-9.128 4.57-3.496 1.453-7.181 2.984-10.25 5.03-6.156 4.104-8.66 11.245-9.44 16.264Z"/><path fill="url(#e)" d="M48.435 28.742a13.86 13.86 0 0 1-2.568 1.991c-4.267 2.56-8.802 3.386-13.215 4.19-3.516.64-6.955 1.265-10.119 2.744C15.401 41 11.001 47.932 10.4 53.932v-.002c0-.458.007-.922.021-1.391.037-.744.113-1.568.24-2.446.942-4.935 3.503-11.447 9.272-15.293 2.443-1.628 5.275-2.93 8.092-4.127 2.478-.813 4.71-1.32 6.838-1.802 3.348-.759 6.435-1.459 9.804-3.204 7.068-3.663 8.92-11.19 8.422-15.617 1.057 5.61.63 12.51-4.654 18.692Z"/><path fill="url(#f)" d="M48.435 28.742a13.859 13.859 0 0 1-2.568 1.991c-4.267 2.56-8.802 3.386-13.215 4.19-3.516.64-6.955 1.265-10.119 2.744-4.102 1.917-7.3 5.024-9.391 8.46 1.845-2.593 4.656-5.49 8.125-6.594 3.384-1.077 6.613-1.188 9.966-1.303.962-.033 1.933-.067 2.922-.124 2.664-.97 5.456-2.275 8.312-4.173 2.461-1.635 4.422-3.382 5.968-5.191Z"/><path fill="url(#g)" d="M48.435 28.742a13.859 13.859 0 0 1-2.568 1.991c-4.267 2.56-8.802 3.386-13.215 4.19-3.516.64-6.955 1.265-10.119 2.744-4.102 1.917-7.3 5.024-9.391 8.46 1.845-2.593 4.656-5.49 8.125-6.594 3.384-1.077 6.613-1.188 9.966-1.303.962-.033 1.933-.067 2.922-.124 2.664-.97 5.456-2.275 8.312-4.173 2.461-1.635 4.422-3.382 5.968-5.191Z"/><path fill="url(#h)" d="m53.089 10.05-.022-.117c-.973 7.012-4.293 10.068-8.867 12.8a37.454 37.454 0 0 1-4.889 2.467c-.978.934-5.624 3.113-9.128 4.57h-.001c-.713.297-1.434.596-2.157.903 2.478-.813 4.71-1.32 6.837-1.802 3.35-.759 6.436-1.459 9.805-3.204 7.068-3.663 8.92-11.19 8.422-15.617Z"/><path fill="url(#i)" d="m53.089 10.05-.022-.117c-.973 7.012-4.293 10.068-8.867 12.8a37.454 37.454 0 0 1-4.889 2.467c-.978.934-5.624 3.113-9.128 4.57h-.001c-.713.297-1.434.596-2.157.903 2.478-.813 4.71-1.32 6.837-1.802 3.35-.759 6.436-1.459 9.805-3.204 7.068-3.663 8.92-11.19 8.422-15.617Z"/></g><defs><linearGradient id="a" x1="34.8" x2="11.733" y1="36.4" y2="52.933" gradientUnits="userSpaceOnUse"><stop stop-color="#FE5004"/><stop offset=".603" stop-color="#FFB915"/><stop offset="1" stop-color="#FFFC41"/></linearGradient><linearGradient id="b" x1="25.667" x2="25.8" y1="37.8" y2="40.2" gradientUnits="userSpaceOnUse"><stop stop-color="#FD3E00"/><stop offset="1" stop-color="#FD4400" stop-opacity="0"/></linearGradient><linearGradient id="c" x1="39.333" x2="6.8" y1="24" y2="52.933" gradientUnits="userSpaceOnUse"><stop stop-color="#005FC6"/><stop offset=".28" stop-color="#23A4DF"/><stop offset=".465" stop-color="#3AC2B7"/><stop offset=".641" stop-color="#60EC7A"/><stop offset=".819" stop-color="#CFFDBD"/><stop offset="1" stop-color="#D0FCB6"/></linearGradient><linearGradient id="d" x1="32.733" x2="29.933" y1="29.533" y2="27" gradientUnits="userSpaceOnUse"><stop stop-color="#0061CB"/><stop offset="1" stop-color="#067EEA" stop-opacity="0"/></linearGradient><linearGradient id="e" x1="53.2" x2="10.4" y1="10" y2="53.867" gradientUnits="userSpaceOnUse"><stop stop-color="#8E55F1"/><stop offset=".141" stop-color="#8B48DF"/><stop offset=".275" stop-color="#E04DD9"/><stop offset=".492" stop-color="#F496C8"/><stop offset=".633" stop-color="#FAD2BA"/><stop offset=".857" stop-color="#FEF7E5"/><stop offset="1" stop-color="#FFF5BF"/></linearGradient><linearGradient id="f" x1="49" x2="14.067" y1="28.333" y2="44.133" gradientUnits="userSpaceOnUse"><stop stop-color="#F41A73"/><stop offset=".4" stop-color="#FC50A3"/><stop offset=".585" stop-color="#FE9485"/><stop offset=".703" stop-color="#FFAF88"/><stop offset="1" stop-color="#FFC385"/></linearGradient><linearGradient id="g" x1="36.4" x2="36.467" y1="33.2" y2="36.4" gradientUnits="userSpaceOnUse"><stop stop-color="#9B0008"/><stop offset="1" stop-color="#EA115A" stop-opacity="0"/></linearGradient><linearGradient id="h" x1="53.2" x2="21.667" y1="13.6" y2="34.2" gradientUnits="userSpaceOnUse"><stop stop-color="#231283"/><stop offset=".363" stop-color="#7053C6"/><stop offset=".466" stop-color="#7272DB"/><stop offset=".634" stop-color="#399EE9"/><stop offset="1" stop-color="#00CFFF"/></linearGradient><linearGradient id="i" x1="45.333" x2="46.733" y1="24" y2="25.8" gradientUnits="userSpaceOnUse"><stop stop-color="#3F259D" stop-opacity="0"/><stop offset="1" stop-color="#412DAA"/></linearGradient></defs>
  </symbol>

  <symbol id="search-icon" xmlns="http://www.w3.org/2000/svg" fill="none">
    <path stroke="currentColor" stroke-linecap="round" stroke-linejoin="round" stroke-opacity=".38" stroke-width="2" d="M11 19a8 8 0 1 0 0-16 8 8 0 0 0 0 16ZM21 21l-4.35-4.35"/>
  </symbol>

  <symbol id="sketch-icon" xmlns="http://www.w3.org/2000/svg" fill="none">
    <g clip-path="url(#a)"><path fill="#FDB300" d="M32 0 13.964 1.872 0 20.278l32 36.589 32-36.59L50.036 1.873 32 0Z"/><path fill="#EB6C00" d="m0 20.278 32 36.59-19.038-36.59H0ZM51.038 20.278 32 56.868l32-36.59H51.038Z"/><path fill="#FDAD00" d="M12.962 20.278 32 56.868l19.039-36.59H12.962Z"/><path fill="#FDD231" d="M13.964 1.872 12.96 20.278 32 0 13.964 1.872ZM51.038 20.278 50.036 1.872 32 0l19.038 20.278Z"/><path fill="#FDAD00" d="M51.038 20.278H64L50.036 1.872l1.002 18.406ZM0 20.278h12.961l1.003-18.406L0 20.278Z"/><path fill="#FEEEB7" d="M32 0 12.962 20.278h38.077L32 0Z"/></g><defs><clipPath id="a"><path fill="#fff" d="M0 0h64v56.95H0z"/></clipPath></defs>
  </symbol>

  <symbol id="slack-banner-icon" xmlns="http://www.w3.org/2000/svg" fill="none">
    <g clip-path="url(#clip0_43_18)">
    <path d="M61.9865 38.4028L64.4065 32.8112C67.0217 34.7527 70.4955 35.7625 73.9307 35.7625C76.4679 35.7625 78.0684 34.7915 78.0684 33.3162C78.0293 29.2002 62.8841 32.4229 62.767 22.0941C62.728 16.8522 67.4124 12.8139 74.0478 12.8139C77.9903 12.8139 81.9328 13.7845 84.7432 15.9977L82.4792 21.7059C79.903 20.0749 76.7024 18.9102 73.6575 18.9102C71.5887 18.9102 70.2227 19.8808 70.2227 21.1235C70.2618 25.1619 85.5241 22.9486 85.6802 32.8112C85.6802 38.1699 81.1133 41.9365 74.5555 41.9365C69.754 41.9365 65.3432 40.8102 61.9865 38.4028ZM154.849 30.792L161.524 34.4809C159.025 38.9463 154.263 41.9365 148.759 41.9365C140.679 41.9365 134.121 35.4131 134.121 27.3752C134.121 19.3373 140.679 12.8139 148.759 12.8139C154.224 12.8139 159.025 15.8425 161.524 20.2694L154.849 23.958C153.639 21.8612 151.375 20.4247 148.759 20.4247C144.895 20.4247 141.772 23.5309 141.772 27.3752C141.772 31.2194 144.895 34.3256 148.759 34.3256C151.375 34.3256 153.639 32.8888 154.848 30.792H154.849ZM89.0369 0.73764H97.3903V41.3926H89.0369V0.73764ZM164.802 0.73764H173.156V24.618L182.602 13.3962H192.829L181.158 26.9089L193.766 41.3926H183.071L173.156 29.2002V41.3926H164.802V0.73764ZM122.216 30.87V23.9968C121.006 21.9776 118.508 20.4247 115.698 20.4247C111.833 20.4247 108.711 23.5309 108.711 27.3752C108.711 31.2194 111.833 34.3256 115.698 34.3256C118.508 34.3256 121.006 32.85 122.216 30.8696V30.87ZM122.216 13.3966H130.57V41.3541H122.216V38.0538C120.85 40.3447 117.454 41.9368 113.902 41.9368C106.563 41.9368 100.786 35.4134 100.786 27.3367C100.786 19.26 106.563 12.8143 113.902 12.8143C117.454 12.8143 120.85 14.4064 122.216 16.6973V13.3958V13.3966Z" fill="currentColor" fill-opacity="0.2"/>
    <path d="M10.3442 30.8308C10.3442 33.6652 8.04122 35.9566 5.19146 35.9566C4.51463 35.9572 3.84431 35.8251 3.21888 35.5677C2.59345 35.3103 2.02519 34.9328 1.54661 34.4567C1.06803 33.9806 0.688547 33.4152 0.429868 32.7931C0.171189 32.1709 0.0383979 31.5041 0.0390958 30.8308C0.0390958 27.9963 2.34209 25.7054 5.19146 25.7054H10.3442V30.8308ZM12.9204 30.8308C12.9204 27.9963 15.2234 25.7054 18.0728 25.7054C20.9221 25.7054 23.2255 27.9963 23.2255 30.8308V43.6447C23.2255 46.4791 20.9225 48.7704 18.0728 48.7704C17.396 48.771 16.7257 48.6389 16.1003 48.3815C15.4749 48.1241 14.9067 47.7465 14.4282 47.2704C13.9496 46.7943 13.5702 46.229 13.3115 45.6069C13.0529 44.9847 12.9201 44.3179 12.9208 43.6447V30.8308H12.9204Z" fill="currentColor" fill-opacity="0.2"/>
    <path d="M18.0727 10.2512C17.3959 10.2518 16.7256 10.1196 16.1002 9.8622C15.4748 9.6048 14.9066 9.22725 14.4281 8.75115C13.9496 8.27505 13.5701 7.70975 13.3114 7.0876C13.0528 6.46544 12.92 5.79866 12.9207 5.1254C12.9203 2.29094 15.2233 0 18.0727 0C20.9221 0 23.2254 2.29094 23.2254 5.1254V10.2512H18.0727ZM18.0727 12.8527C20.9221 12.8527 23.2254 15.1436 23.2254 17.9781C23.2254 20.8126 20.9224 23.1039 18.0727 23.1039H5.15237C4.47554 23.1045 3.80522 22.9724 3.17979 22.715C2.55436 22.4576 1.98609 22.0801 1.50752 21.604C1.02894 21.1279 0.649454 20.5626 0.390775 19.9404C0.132096 19.3182 -0.000695083 18.6514 2.73605e-06 17.9781C2.73605e-06 15.1436 2.30299 12.8531 5.15237 12.8531H18.0731L18.0727 12.8527Z" fill="currentColor" fill-opacity="0.2"/>
    <path d="M38.7219 17.9781C38.7219 15.1436 41.0249 12.8527 43.8743 12.8527C46.7236 12.8527 49.027 15.1436 49.027 17.9781C49.027 20.8126 46.724 23.1039 43.8743 23.1039H38.7219V17.9781ZM36.1453 17.9781C36.1453 20.8126 33.8427 23.1039 30.993 23.1039C30.3161 23.1045 29.6458 22.9724 29.0204 22.715C28.395 22.4576 27.8267 22.0801 27.3481 21.604C26.8696 21.1279 26.4901 20.5626 26.2314 19.9404C25.9727 19.3182 25.8399 18.6514 25.8406 17.9781V5.1254C25.8406 2.29094 28.1436 0 30.993 0C33.8424 0 36.1457 2.29094 36.1457 5.1254V17.9785L36.1453 17.9781Z" fill="currentColor" fill-opacity="0.2"/>
    <path d="M30.993 38.5193C33.8424 38.5193 36.1457 40.8102 36.1457 43.6447C36.1457 46.4791 33.8427 48.7704 30.993 48.7704C30.3161 48.7711 29.6458 48.6389 29.0204 48.3816C28.395 48.1242 27.8267 47.7467 27.3481 47.2706C26.8695 46.7944 26.4901 46.2291 26.2314 45.6069C25.9727 44.9848 25.8399 44.318 25.8406 43.6447V38.5193H30.993ZM30.993 35.9562C30.3162 35.9568 29.6459 35.8247 29.0205 35.5674C28.3951 35.31 27.8268 34.9325 27.3483 34.4564C26.8697 33.9804 26.4902 33.4151 26.2315 32.793C25.9728 32.1708 25.84 31.504 25.8406 30.8308C25.8406 27.9963 28.1436 25.7054 30.993 25.7054H43.9137C46.7631 25.7054 49.066 27.9963 49.066 30.8308C49.066 33.6652 46.7631 35.9566 43.9133 35.9566H30.993V35.9562Z" fill="currentColor" fill-opacity="0.2"/>
    </g>
    <defs>
    <clipPath id="clip0_43_18">
    <rect width="194" height="49" fill="currentColor"/>
    </clipPath>
    </defs>
  </symbol>

  <symbol id="slack-2" viewBox="0 0 65 64" fill="none" xmlns="http://www.w3.org/2000/svg">
    <g opacity="0.78" clip-path="url(#clip0_32_0)">
    <path fill-rule="evenodd" clip-rule="evenodd" d="M13.6717 40.2192C13.6724 41.0975 13.4967 41.9674 13.1546 42.779C12.8125 43.5906 12.3108 44.328 11.6781 44.949C11.0454 45.57 10.2942 46.0624 9.46751 46.3979C8.6408 46.7335 7.75481 46.9057 6.86024 46.9046C5.96613 46.905 5.08072 46.7323 4.25464 46.3964C3.42855 46.0605 2.678 45.568 2.04589 44.9471C1.41379 44.3262 0.912528 43.5891 0.570777 42.7778C0.229027 41.9665 0.0534894 41.0971 0.0542014 40.2192C0.053489 39.341 0.229116 38.4714 0.571036 37.6599C0.912955 36.8485 1.41446 36.1112 2.04685 35.4903C2.67924 34.8693 3.43012 34.3769 4.25651 34.0412C5.08291 33.7054 5.96861 33.533 6.86295 33.5337H13.6744V40.2192H13.6717ZM17.0761 40.2192C17.0754 39.341 17.251 38.4714 17.5929 37.6599C17.9348 36.8485 18.4363 36.1112 19.0687 35.4903C19.7011 34.8693 20.452 34.3769 21.2784 34.0412C22.1048 33.7054 22.9905 33.533 23.8848 33.5337C24.7792 33.533 25.6649 33.7054 26.4913 34.0412C27.3177 34.3769 28.0685 34.8693 28.7009 35.4903C29.3333 36.1112 29.8348 36.8485 30.1767 37.6599C30.5187 38.4714 30.6943 39.341 30.6936 40.2192V56.9355C30.6943 57.8136 30.5187 58.6833 30.1767 59.4947C29.8348 60.3062 29.3333 61.0435 28.7009 61.6644C28.0685 62.2853 27.3177 62.7778 26.4913 63.1135C25.6649 63.4492 24.7792 63.6217 23.8848 63.621C22.9905 63.6217 22.1048 63.4492 21.2784 63.1135C20.452 62.7778 19.7011 62.2853 19.0687 61.6644C18.4363 61.0435 17.9348 60.3062 17.5929 59.4947C17.251 58.6833 17.0754 57.8136 17.0761 56.9355V40.2192Z" fill="#E01E5A"/>
    <path fill-rule="evenodd" clip-rule="evenodd" d="M23.8848 13.3736C22.9902 13.3743 22.1043 13.2018 21.2777 12.8659C20.4512 12.53 19.7002 12.0373 19.0677 11.4161C18.4353 10.7949 17.9339 10.0573 17.5921 9.24554C17.2503 8.43379 17.075 7.56384 17.076 6.68547C17.0753 5.80733 17.251 4.93766 17.5929 4.12623C17.9348 3.31479 18.4363 2.57751 19.0687 1.95657C19.7011 1.33563 20.452 0.843207 21.2784 0.507479C22.1048 0.17175 22.9905 -0.00069732 23.8848 2.11916e-06C24.7791 -0.00069732 25.6648 0.17175 26.4912 0.507479C27.3176 0.843207 28.0685 1.33563 28.7009 1.95657C29.3333 2.57751 29.8348 3.31479 30.1767 4.12623C30.5186 4.93766 30.6943 5.80733 30.6935 6.68547V13.3763H23.8875L23.8848 13.3736ZM23.8848 16.7669C24.7791 16.7662 25.6648 16.9386 26.4912 17.2743C27.3176 17.6101 28.0685 18.1025 28.7009 18.7234C29.3333 19.3444 29.8348 20.0817 30.1767 20.8931C30.5186 21.7045 30.6943 22.5742 30.6935 23.4523C30.6943 24.3305 30.5186 25.2001 30.1767 26.0116C29.8348 26.823 29.3333 27.5603 28.7009 28.1812C28.0685 28.8022 27.3176 29.2946 26.4912 29.6303C25.6648 29.9661 24.7791 30.1385 23.8848 30.1378H6.80875C5.91464 30.1385 5.02916 29.9662 4.20294 29.6306C3.37672 29.295 2.62597 28.8028 1.99361 28.1822C1.36125 27.5615 0.859694 26.8246 0.517615 26.0134C0.175536 25.2023 -0.000354061 24.3329 2.15823e-06 23.455C-0.000710178 22.5769 0.174917 21.7072 0.516837 20.8958C0.858756 20.0843 1.36026 19.347 1.99265 18.7261C2.62504 18.1052 3.37592 17.6127 4.20231 17.277C5.02871 16.9413 5.91441 16.7688 6.80875 16.7695H23.8875L23.8848 16.7669Z" fill="#36C5F0"/>
    <path fill-rule="evenodd" clip-rule="evenodd" d="M51.1738 23.4523C51.1731 22.574 51.3488 21.7041 51.6909 20.8925C52.0329 20.0809 52.5347 19.3435 53.1674 18.7225C53.8 18.1015 54.5512 17.6092 55.378 17.2736C56.2047 16.938 57.0907 16.7658 57.9852 16.7669C58.8796 16.7662 59.7653 16.9386 60.5917 17.2743C61.4181 17.6101 62.1689 18.1025 62.8013 18.7234C63.4337 19.3444 63.9352 20.0817 64.2771 20.8931C64.6191 21.7045 64.7947 22.5742 64.794 23.4523C64.7947 24.3305 64.6191 25.2002 64.2771 26.0116C63.9352 26.823 63.4337 27.5603 62.8013 28.1812C62.1689 28.8022 61.4181 29.2946 60.5917 29.6303C59.7653 29.9661 58.8796 30.1385 57.9852 30.1378H51.1738V23.455V23.4523ZM47.7694 23.4523C47.7701 24.3305 47.5945 25.2002 47.2526 26.0116C46.9106 26.823 46.4091 27.5603 45.7767 28.1812C45.1444 28.8022 44.3935 29.2946 43.5671 29.6303C42.7407 29.9661 41.855 30.1385 40.9606 30.1378C40.0661 30.1389 39.1801 29.9667 38.3534 29.6311C37.5267 29.2955 36.7755 28.8032 36.1428 28.1822C35.5101 27.5612 35.0084 26.8238 34.6663 26.0122C34.3242 25.2006 34.1485 24.3307 34.1492 23.4523V6.68548C34.1485 5.80711 34.3242 4.93722 34.6663 4.12561C35.0084 3.31401 35.5101 2.57661 36.1428 1.95563C36.7755 1.33465 37.5267 0.842289 38.3534 0.506717C39.1801 0.171145 40.0661 -0.00104452 40.9606 4.76684e-06C41.855 -0.000694672 42.7407 0.171753 43.5671 0.507481C44.3935 0.84321 45.1444 1.33563 45.7767 1.95657C46.4091 2.57752 46.9106 3.3148 47.2526 4.12623C47.5945 4.93766 47.7701 5.80733 47.7694 6.68548V23.455V23.4523Z" fill="#2EB67D"/>
    <path fill-rule="evenodd" clip-rule="evenodd" d="M40.9606 50.2474C41.8549 50.2467 42.7406 50.4191 43.567 50.7548C44.3934 51.0906 45.1443 51.583 45.7767 52.2039C46.4091 52.8249 46.9106 53.5622 47.2525 54.3736C47.5944 55.185 47.7701 56.0547 47.7693 56.9328C47.7704 57.8112 47.5951 58.6812 47.2533 59.4929C46.9115 60.3046 46.4101 61.0422 45.7777 61.6635C45.1452 62.2847 44.3942 62.7773 43.5677 63.1132C42.7411 63.4491 41.8552 63.6217 40.9606 63.621C40.066 63.6217 39.1801 63.4491 38.3535 63.1132C37.527 62.7773 36.776 62.2847 36.1435 61.6635C35.5111 61.0422 35.0097 60.3046 34.6679 59.4929C34.3261 58.6812 34.1508 57.8112 34.1518 56.9328V50.2474H40.9606ZM40.9606 46.9046C40.0663 46.9053 39.1806 46.7329 38.3542 46.3972C37.5278 46.0614 36.7769 45.569 36.1445 44.9481C35.5121 44.3271 35.0106 43.5898 34.6687 42.7784C34.3268 41.967 34.1511 41.0973 34.1518 40.2192C34.1511 39.341 34.3268 38.4714 34.6687 37.6599C35.0106 36.8485 35.5121 36.1112 36.1445 35.4903C36.7769 34.8693 37.5278 34.3769 38.3542 34.0412C39.1806 33.7054 40.0663 33.533 40.9606 33.5337H58.0366C58.931 33.533 59.8167 33.7054 60.6431 34.0412C61.4695 34.3769 62.2203 34.8693 62.8527 35.4903C63.4851 36.1112 63.9866 36.8485 64.3286 37.6599C64.6705 38.4714 64.8461 39.341 64.8454 40.2192C64.8461 41.0973 64.6705 41.967 64.3286 42.7784C63.9866 43.5898 63.4851 44.3271 62.8527 44.9481C62.2203 45.569 61.4695 46.0614 60.6431 46.3972C59.8167 46.7329 58.931 46.9053 58.0366 46.9046H40.9606Z" fill="#ECB22E"/>
    </g>
    <defs>
    <clipPath id="clip0_32_0">
    <rect width="65" height="63.8231" fill="white"/>
    </clipPath>
    </defs>
  </symbol>

  <symbol id="stripe-down" xmlns="http://www.w3.org/2000/svg" fill="none">
    <path stroke="currentColor" stroke-linecap="round" stroke-linejoin="round" stroke-opacity=".55" stroke-width="1.5" d="M1.5.75 6 5.25l4.5-4.5"/>
  </symbol>

  <symbol id="toolbox-icon" xmlns="http://www.w3.org/2000/svg" fill="none">
    <g clip-path="url(#a)" opacity=".78"><path fill="#000001" d="M32 64.152 60 48.13V16.114l-28 16.02v32.018Z"/><path fill="#fff" d="M38 49.111V54l12-7.111V42l-12 7.111Z"/><path fill="url(#b)" d="M32 .152 4 16.114V48.13l28 16.022V32.134l28-16.02L32 .152Z"/></g><defs><linearGradient id="b" x1="4.36" x2="60.082" y1="46.51" y2="17.564" gradientUnits="userSpaceOnUse"><stop offset=".043" stop-color="#FF8618"/><stop offset=".382" stop-color="#FF246E"/><stop offset=".989" stop-color="#AF1DF5"/></linearGradient><clipPath id="a"><path fill="#fff" d="M0 0h64v64H0z"/></clipPath></defs>
  </symbol>

  <symbol id="twitter-icon" xmlns="http://www.w3.org/2000/svg" fill="none">
    <path fill="currentColor" fill-opacity=".78" d="M26.45 5.996c.019.262.019.523.019.784 0 7.988-6.08 17.192-17.19 17.192-3.423 0-6.603-.992-9.279-2.714.486.056.954.075 1.46.075 2.719.007 5.361-.903 7.501-2.581a6.054 6.054 0 0 1-5.65-4.19c.373.056.748.093 1.141.093.542 0 1.086-.075 1.591-.205a6.04 6.04 0 0 1-4.845-5.93v-.075c.806.449 1.74.73 2.73.767A6.033 6.033 0 0 1 1.235 4.18c0-1.122.299-2.151.823-3.048a17.185 17.185 0 0 0 12.459 6.322 6.866 6.866 0 0 1-.15-1.384A6.039 6.039 0 0 1 20.407.029c1.74 0 3.311.729 4.415 1.908a11.935 11.935 0 0 0 3.834-1.46A6.03 6.03 0 0 1 26 3.807a12.11 12.11 0 0 0 3.478-.936 12.967 12.967 0 0 1-3.029 3.125Z"/>
  </symbol>

  <symbol id="vscode-icon" xmlns="http://www.w3.org/2000/svg" fill="none">
    <g opacity=".78"><mask id="a" width="65" height="63" x="0" y="0" maskUnits="userSpaceOnUse" style="mask-type:alpha"><path fill="#fff" d="M45.913 62.497a4.125 4.125 0 0 0 3.212-.12l13.33-6.25a4.014 4.014 0 0 0 1.672-1.456 3.87 3.87 0 0 0 .62-2.098v-42.38c0-.742-.215-1.47-.62-2.098a4.014 4.014 0 0 0-1.671-1.455L49.126.39A4.126 4.126 0 0 0 46.7.056a4.068 4.068 0 0 0-2.175 1.095l-25.52 22.686-11.115-8.222a2.744 2.744 0 0 0-1.75-.531 2.733 2.733 0 0 0-1.693.68l-3.565 3.16a2.585 2.585 0 0 0-.003 3.888l9.64 8.57-9.64 8.57a2.585 2.585 0 0 0 .003 3.887L4.448 47a2.732 2.732 0 0 0 1.694.681 2.743 2.743 0 0 0 1.749-.531l11.116-8.222 25.52 22.686c.394.385.866.685 1.386.883Zm2.657-45.436L29.207 31.383 48.57 45.705V17.06Z"/></mask><g mask="url(#a)"><path fill="#0065A9" d="M62.495 6.65 49.155.39a4.128 4.128 0 0 0-2.426-.333 4.07 4.07 0 0 0-2.176 1.095L.88 39.952a2.584 2.584 0 0 0 .003 3.888L4.451 47a2.735 2.735 0 0 0 1.694.681c.63.028 1.249-.16 1.75-.531L60.489 8.273c1.764-1.304 4.299-.078 4.299 2.08v-.151c0-.742-.216-1.47-.62-2.098a4.013 4.013 0 0 0-1.672-1.455Z"/><path fill="#007ACC" d="m62.495 56.116-13.34 6.259a4.13 4.13 0 0 1-2.426.333 4.07 4.07 0 0 1-2.176-1.095L.88 22.813a2.584 2.584 0 0 1 .003-3.888l3.568-3.16a2.735 2.735 0 0 1 1.695-.681c.629-.027 1.248.16 1.75.532l52.592 38.876c1.764 1.304 4.299.078 4.299-2.08v.151a3.87 3.87 0 0 1-.62 2.098 4.013 4.013 0 0 1-1.672 1.455Z"/><path fill="#1F9CF0" d="M49.113 62.38a4.13 4.13 0 0 1-2.426.333 4.072 4.072 0 0 1-2.176-1.096c1.493 1.455 4.046.424 4.046-1.634V2.79c0-2.058-2.553-3.088-4.046-1.633A4.072 4.072 0 0 1 46.687.06a4.13 4.13 0 0 1 2.426.333l13.338 6.25a4.013 4.013 0 0 1 1.672 1.455 3.87 3.87 0 0 1 .62 2.098v42.38c0 1.516-.89 2.897-2.292 3.554l-13.338 6.25Z"/><path fill="url(#b)" fill-opacity=".25" d="M45.913 62.496a4.127 4.127 0 0 0 3.212-.12l13.33-6.25a4.013 4.013 0 0 0 1.672-1.455c.405-.629.62-1.356.62-2.099v-42.38c0-.742-.215-1.47-.62-2.098a4.014 4.014 0 0 0-1.671-1.455L49.126.389A4.126 4.126 0 0 0 46.7.056a4.068 4.068 0 0 0-2.175 1.096l-25.52 22.686-11.115-8.222a2.744 2.744 0 0 0-1.75-.532 2.732 2.732 0 0 0-1.693.681l-3.565 3.16a2.585 2.585 0 0 0-.003 3.888l9.64 8.57-9.64 8.569a2.585 2.585 0 0 0 .003 3.888L4.448 47a2.732 2.732 0 0 0 1.694.68 2.744 2.744 0 0 0 1.749-.531l11.116-8.222 25.519 22.686c.394.385.867.686 1.387.883ZM48.57 17.06 29.207 31.383 48.57 45.703V17.06Z"/></g></g><defs><linearGradient id="b" x1="32.374" x2="32.374" y1="0" y2="62.765" gradientUnits="userSpaceOnUse"><stop stop-color="#fff"/><stop offset="1" stop-color="#fff" stop-opacity="0"/></linearGradient></defs>
  </symbol>

  <symbol id="wordpress-banner-icon" xmlns="http://www.w3.org/2000/svg" fill="none">
    <g clip-path="url(#clip0_43_31)">
    <path d="M112.516 17.1961H104.879V18.0002C107.268 18.0002 107.652 18.5082 107.652 21.5149V26.9352C107.652 29.9415 107.268 30.492 104.879 30.492C103.045 30.2382 101.808 29.2638 100.101 27.4008L98.1386 25.2839C100.783 24.8175 102.191 23.1666 102.191 21.3032C102.191 18.9749 100.187 17.1965 96.432 17.1965H88.9236V18.0002C91.3123 18.0002 91.6965 18.5082 91.6965 21.5149V26.9352C91.6965 29.9415 91.3123 30.492 88.9236 30.492V31.2964H97.413V30.4917C95.0244 30.4917 94.6406 29.9415 94.6406 26.9352V25.411H95.3654L100.101 31.2964H112.516C118.617 31.2964 121.262 28.0788 121.262 24.2249C121.262 20.3717 118.617 17.1961 112.516 17.1961ZM94.6409 24.0977V18.4665H96.3896C98.3091 18.4665 99.1628 19.779 99.1628 21.3036C99.1628 22.7856 98.3091 24.0977 96.3896 24.0977H94.6409ZM112.644 29.984H112.345C110.81 29.984 110.597 29.603 110.597 27.655V18.4665H112.644C117.081 18.4665 117.891 21.6841 117.891 24.1827C117.891 26.7656 117.081 29.984 112.644 29.984ZM65.1617 25.6652L68.1054 17.0265C68.9591 14.5283 68.5748 13.8089 65.8444 13.8089V12.9616H73.8648V13.8089C71.1772 13.8089 70.5376 14.4437 69.471 17.535L64.6069 32.0162H64.0526L59.7005 18.7621L55.2635 32.0162H54.7088L49.974 17.535C48.9501 14.4437 48.2674 13.8089 45.7927 13.8089V12.9616H55.2639V13.8089C52.7468 13.8089 52.0636 14.4016 52.9601 17.0265L55.8182 25.6648L60.1271 12.9616H60.938L65.1617 25.6652ZM79.6662 31.8466C74.9734 31.8466 71.134 28.4169 71.134 24.2245C71.134 20.0753 74.9738 16.6448 79.6662 16.6448C84.3593 16.6448 88.1984 20.0753 88.1984 24.2245C88.1984 28.4169 84.3593 31.8466 79.6662 31.8466ZM79.6662 17.9584C75.7415 17.9584 74.3763 21.4724 74.3763 24.2249C74.3763 27.0202 75.7415 30.492 79.6662 30.492C83.6341 30.492 84.9993 27.0202 84.9993 24.2249C84.9993 21.4724 83.6341 17.9584 79.6662 17.9584Z" fill="currentColor" fill-opacity="0.2"/>
    <path d="M131.799 30.4495V31.2964H122.029V30.4495C124.888 30.4495 125.4 29.7297 125.4 25.4948V18.7207C125.4 14.4854 124.888 13.8085 122.029 13.8085V12.9612H130.86C135.254 12.9612 137.686 15.2056 137.686 18.2123C137.686 21.1343 135.254 23.4204 130.86 23.4204H128.428V25.4944C128.428 29.7297 128.94 30.4495 131.799 30.4495ZM130.86 14.4854H128.428V21.8537H130.86C133.249 21.8537 134.359 20.2024 134.359 18.2123C134.359 16.18 133.249 14.4854 130.86 14.4854ZM166.995 27.3161L166.782 28.0784C166.398 29.4755 165.928 29.9839 162.899 29.9839H162.301C160.084 29.9839 159.699 29.4755 159.699 26.4696V24.5216C163.027 24.5216 163.283 24.8179 163.283 27.0202H164.094V20.7101H163.283C163.283 22.912 163.027 23.2083 159.699 23.2083V18.4661H162.045C165.075 18.4661 165.544 18.9745 165.928 20.3716L166.142 21.1757H166.824L166.526 17.1957H153.982V17.9998C156.371 17.9998 156.756 18.5078 156.756 21.5145V26.9348C156.756 29.685 156.429 30.3777 154.546 30.4766C152.756 30.2051 151.527 29.2359 149.845 27.4004L147.882 25.2835C150.528 24.8171 151.936 23.1662 151.936 21.3028C151.936 18.9745 149.93 17.1961 146.176 17.1961H138.668V17.9998C141.056 17.9998 141.441 18.5078 141.441 21.5145V26.9348C141.441 29.9411 141.057 30.4916 138.668 30.4916V31.296H147.158V30.4913C144.769 30.4913 144.385 29.9411 144.385 26.9348V25.411H145.11L149.845 31.2964H167.379L167.636 27.3165H166.995V27.3161ZM144.384 24.0977V18.4665H146.133C148.053 18.4665 148.907 19.779 148.907 21.3035C148.907 22.7856 148.053 24.0977 146.133 24.0977H144.384ZM175.655 31.8466C173.949 31.8466 172.455 30.9576 171.815 30.4066C171.602 30.6187 171.218 31.2539 171.133 31.8466H170.322V26.0036H171.176C171.517 28.7978 173.479 30.4495 175.997 30.4495C177.362 30.4495 178.471 29.6876 178.471 28.4172C178.471 27.3165 177.49 26.4692 175.741 25.6652L173.309 24.5219C171.602 23.7168 170.322 22.3193 170.322 20.4566C170.322 18.4244 172.242 16.6884 174.887 16.6884C176.296 16.6884 177.489 17.1965 178.215 17.7892C178.428 17.6199 178.642 17.1536 178.77 16.6452H179.581V21.6427H178.685C178.385 19.6522 177.277 18.0009 175.016 18.0009C173.821 18.0009 172.711 18.6786 172.711 19.7376C172.711 20.8383 173.608 21.4306 175.656 22.3625L178.001 23.5058C180.05 24.4794 180.86 26.0469 180.86 27.3169C180.86 29.9843 178.513 31.847 175.655 31.847V31.8466ZM188.795 31.8466C187.088 31.8466 185.595 30.9576 184.955 30.4066C184.742 30.6187 184.358 31.2539 184.273 31.8466H183.463V26.0036H184.315C184.656 28.7978 186.619 30.4495 189.136 30.4495C190.501 30.4495 191.611 29.6876 191.611 28.4172C191.611 27.3165 190.63 26.4692 188.88 25.6652L186.448 24.5219C184.742 23.7168 183.462 22.3193 183.462 20.4566C183.462 18.4244 185.382 16.6884 188.027 16.6884C189.435 16.6884 190.629 17.1965 191.355 17.7892C191.568 17.6199 191.781 17.1536 191.909 16.6452H192.72V21.6427H191.824C191.525 19.6522 190.416 18.0009 188.155 18.0009C186.961 18.0009 185.851 18.6786 185.851 19.7376C185.851 20.8383 186.747 21.4306 188.795 22.3625L191.141 23.5058C193.189 24.4794 193.999 26.0469 193.999 27.3169C193.999 29.9843 191.653 31.847 188.795 31.847V31.8466Z" fill="currentColor" fill-opacity="0.2"/>
    <path d="M3.12825 21.8432C3.12825 29.2608 7.47165 35.6705 13.7695 38.7083L4.76285 14.2169C3.68317 16.6166 3.12615 19.2155 3.12825 21.8436V21.8432ZM34.7548 20.8977C34.7548 18.5819 33.9167 16.978 33.1975 15.7294C32.2404 14.1861 31.3435 12.8788 31.3435 11.3355C31.3435 9.61269 32.6598 8.00913 34.5138 8.00913C34.5975 8.00913 34.6767 8.01966 34.7586 8.02417C31.3996 4.96974 26.9243 3.1052 22.0088 3.1052C15.4128 3.1052 9.60982 6.46386 6.23377 11.5517C6.67709 11.5645 7.09426 11.5739 7.44892 11.5739C9.42378 11.5739 12.4808 11.3358 12.4808 11.3358C13.4985 11.2764 13.6183 12.76 12.602 12.8796C12.602 12.8796 11.579 12.9992 10.4408 13.0582L17.3164 33.3558L21.448 21.0568L18.5065 13.0578C17.4899 12.9984 16.5268 12.8788 16.5268 12.8788C15.509 12.8198 15.6287 11.2757 16.6457 11.3355C16.6457 11.3355 19.7641 11.5731 21.6193 11.5731C23.5934 11.5731 26.6511 11.3355 26.6511 11.3355C27.6692 11.2757 27.789 12.7592 26.772 12.8788C26.772 12.8788 25.7471 12.9984 24.6111 13.0575L31.4341 33.2016L33.3172 26.9551C34.1334 24.3636 34.7548 22.5021 34.7548 20.8977ZM22.3399 23.4825L16.6753 39.82C18.4072 40.3263 20.2033 40.5834 22.0088 40.5834C24.1442 40.5841 26.2643 40.2249 28.2785 39.521C28.2263 39.4391 28.1814 39.3528 28.1444 39.263L22.3399 23.4825ZM38.5757 12.8529C38.6568 13.4497 38.703 14.0902 38.703 14.7799C38.703 16.6813 38.3449 18.8188 37.2669 21.4916L31.5 38.0412C37.1131 34.7923 40.8885 28.7568 40.8885 21.8439C40.8889 18.5857 40.0504 15.5222 38.5757 12.8529ZM22.0088 0C9.87354 0 0 9.79884 0 21.8432C0 33.8894 9.87354 43.6879 22.0088 43.6879C34.144 43.6879 44.0187 33.8894 44.0187 21.8432C44.0187 9.79884 34.144 0 22.0088 0ZM22.0088 42.6864C10.4302 42.6864 1.00903 33.3362 1.00903 21.8432C1.00903 10.3513 10.4298 1.00147 22.0088 1.00147C33.5874 1.00147 43.0078 10.3513 43.0078 21.8432C43.0078 33.3362 33.5874 42.6864 22.0088 42.6864Z" fill="currentColor" fill-opacity="0.2"/>
    </g>
    <defs>
    <clipPath id="clip0_43_31">
    <rect width="194" height="44" fill="currentColor"/>
    </clipPath>
    </defs>
  </symbol>

  <symbol id="zeplin-icon" xmlns="http://www.w3.org/2000/svg" fill="none">
    <path fill="#FDBD39" fill-rule="evenodd" d="m8.631 30.337-2.93 1.052-.156 8.566 10.14-3.641c-3.478-1.149-6.018-3.17-7.054-5.977Z" clip-rule="evenodd"/><path fill="#F69833" fill-rule="evenodd" d="M10.165 21.276 0 24.926l5.702 6.463 2.93-1.052c-1.033-2.8-.396-5.965 1.533-9.061Z" clip-rule="evenodd"/><path fill="#FECF33" fill-rule="evenodd" d="M27.27 8.915C14.326 13.563 5.98 23.154 8.63 30.337l46.874-16.832c-2.65-7.183-15.291-9.238-28.235-4.59Z" clip-rule="evenodd"/><path fill="#EE6723" fill-rule="evenodd" d="M36.866 34.927C49.81 30.279 58.17 20.731 55.505 13.505L8.63 30.336c2.666 7.226 15.292 9.239 28.235 4.591Z" clip-rule="evenodd"/><path fill="#F69833" fill-rule="evenodd" d="M55.505 13.505 8.63 30.336c.918 2.488 4.418 3.714 9.33 3.714 4.787 0 10.916-1.164 17.306-3.458 12.944-4.648 22.05-12.173 20.238-17.087Z" clip-rule="evenodd"/><path fill="#FDBD39" fill-rule="evenodd" d="M46.176 9.792c-4.788 0-10.917 1.164-17.307 3.458C15.925 17.898 6.82 25.423 8.631 30.337l46.874-16.832c-.918-2.488-4.418-3.713-9.33-3.713Z" clip-rule="evenodd"/><path fill="#EE6723" fill-rule="evenodd" d="M43.587 40.409c-1.38 0-3.414-1.225-6.048-3.64-3.115-2.857-6.684-7.041-10.05-11.782-3.364-4.741-6.13-9.481-7.785-13.347-1.804-4.213-2.061-6.803-.765-7.7a1.757 1.757 0 0 1 1.019-.295c1.055 0 3.11.772 6.91 4.45l.083.08-.011.114c-.026.264-.05.53-.071.793l-.043.519-.372-.37C22.359 5.178 20.556 4.74 19.97 4.74a.69.69 0 0 0-.395.1c-.562.388-.598 2.29 1.15 6.374 1.627 3.797 4.352 8.465 7.673 13.145 3.322 4.68 6.836 8.803 9.896 11.609 3.3 3.026 4.787 3.352 5.273 3.352a.703.703 0 0 0 .406-.105c.593-.41.594-2.448-1.357-6.844l-.09-.201.197-.106c.196-.105.385-.21.563-.309l.235-.13.108.243c1.383 3.115 2.676 7.073.98 8.244-.285.198-.63.298-1.023.298Zm0-.48v.24-.24Z" clip-rule="evenodd"/><path fill="#EE6723" fill-rule="evenodd" d="m37.18 34.796-.02.24c-.326 3.98-1.188 8.764-3.435 8.958a1.586 1.586 0 0 1-.139.006c-1.526 0-2.97-2.15-4.29-6.388-1.251-4.01-2.221-9.395-2.733-15.162-.511-5.766-.503-11.235.022-15.4.572-4.538 1.663-6.908 3.24-7.044.046-.004.095-.006.142-.006 1.108 0 2.776 1.232 4.484 6.972l-1.115.211c-.57-1.918-1.192-3.478-1.809-4.55-.57-.991-1.126-1.537-1.563-1.537-.014 0-.029 0-.043.002-.683.059-1.679 1.689-2.234 6.088-.516 4.09-.522 9.477-.018 15.169.505 5.692 1.46 10.996 2.688 14.935.55 1.764 1.152 3.217 1.744 4.204.545.91 1.072 1.41 1.485 1.41l.043-.001c.654-.057 1.886-1.753 2.405-7.72l1.147-.387Z" clip-rule="evenodd"/>
  </symbol>

  <symbol id="invision-2" viewBox="0 0 65 64" fill="none" xmlns="http://www.w3.org/2000/svg">
    <g opacity="0.78" clip-path="url(#clip0_38_6)">
    <path d="M0 4C0 1.79086 1.79086 0 4 0H61C63.2091 0 65 1.79086 65 4V59.8234C65 62.0325 63.2091 63.8234 61 63.8234H4C1.79086 63.8234 0 62.0325 0 59.8234V4Z" fill="#FF0066"/>
    <path d="M22.1178 20.5381C24.1737 20.5087 25.819 18.8536 25.7992 16.8346C25.7792 14.8155 24.1016 13.192 22.0452 13.2017C19.9888 13.2114 18.3273 14.8506 18.327 16.8698C18.3287 17.3556 18.4283 17.8363 18.6201 18.2842C18.8119 18.732 19.092 19.1382 19.4444 19.4792C19.7968 19.8202 20.2145 20.0894 20.6733 20.2712C21.1321 20.453 21.6231 20.5438 22.1178 20.5384V20.5381Z" fill="white"/>
    <path d="M14.258 40.178C14.0429 41.0813 13.9305 42.0053 13.9229 42.9329C13.9229 46.1622 15.7063 48.3065 19.4971 48.3065C22.6405 48.3065 25.191 46.4736 27.0242 43.5123L25.9034 47.9288H32.1434L35.7134 33.8877C36.6051 30.3288 38.3314 28.4832 40.9522 28.4832C43.0139 28.4832 44.2959 29.7417 44.2959 31.8224C44.3061 32.4893 44.2121 33.154 44.0176 33.7932L42.1793 40.2496C41.9164 41.1387 41.7852 42.0604 41.7896 42.9863C41.7896 46.0498 43.6279 48.2966 47.473 48.2966C50.7621 48.2966 53.383 46.2183 54.8312 41.2376L52.3793 40.3057C51.1521 43.6449 50.0941 44.2473 49.2593 44.2473C48.4247 44.2473 47.9748 43.7013 47.9748 42.6058C47.9989 42.0311 48.0923 41.4612 48.253 40.908L50.0393 34.6154C50.4403 33.3216 50.6471 31.9773 50.653 30.625C50.653 25.9173 47.7539 23.4615 44.2413 23.4615C40.9522 23.4615 37.6088 26.3742 35.9368 29.4405L37.1614 23.9362H27.6323L26.2934 28.7868H30.7551L28.0096 39.5705C25.8514 44.2782 21.8892 44.3547 21.3925 44.245C20.576 44.0635 20.056 43.7599 20.056 42.713C20.0799 41.8656 20.2109 41.0244 20.446 40.2087L24.6268 23.9235H14.0397L12.7034 28.7741H17.1051L14.258 40.178Z" fill="white"/>
    </g>
    <defs>
    <clipPath id="clip0_38_6">
    <rect width="65" height="63.8234" fill="white"/>
    </clipPath>
    </defs> 
  </symbol>

</svg>